<?xml version="1.0" encoding="utf-8"?>
<!-- Generator: Adobe Illustrator 19.0.0, SVG Export Plug-In . SVG Version: 6.00 Build 0)  -->
<svg version="1.1" xmlns="http://www.w3.org/2000/svg" xmlns:xlink="http://www.w3.org/1999/xlink" x="0px" y="0px"
	 viewBox="-34 36 30 30" style="enable-background:new -34 36 30 30;" xml:space="preserve">
<style type="text/css">
	.st0{display:none;fill:#262626;}
	.st1{display:none;}
	.st2{font-family:'ArialMT';}
	.st3{font-size:100.1578px;}
	.st4{display:none;fill:none;stroke:#000000;stroke-width:0.5;stroke-miterlimit:10;}
</style>
<g id="Layer_1">
	<path class="st0" d="M-6.6,38.5c-0.1-0.1-0.3-0.1-0.5-0.1l-7.5,1.5c-0.2,0-0.3,0.1-0.3,0.3l-7.3,7.3h-4.3c-0.3,0-0.4,0.1-0.5,0.2
		l-4.5,6c-0.1,0.1-0.1,0.4,0,0.6c0.1,0.3,0.4,0.3,0.6,0.3c3-0.6,5-0.9,6.3-0.8l-6.8,8.9c-0.1,0.1-0.2,0.3-0.2,0.4
		c0,0.1,0.1,0.3,0.2,0.4c0.1,0.1,0.3,0.1,0.4,0.1h0.2l9.3-7.2c0.2,1.5-0.2,3.8-1.1,6.4l0,0c0,0.2,0,0.5,0.3,0.6
		c0.2,0.1,0.5,0.1,0.7,0l6-4.5c0.1-0.1,0.2-0.2,0.2-0.5v-4.2l7.4-7.4c0,0,0.1-0.1,0.1-0.3l1.4-7.6C-6.4,38.9-6.5,38.6-6.6,38.5z
		 M-20.6,55.1c0-0.2-0.3-0.4-0.4-0.4h-0.1c-0.1,0-0.2,0.1-0.3,0.1c-0.1,0-0.1,0.1-0.2,0.1l-6.1,4.7l4.6-6C-23,53.4-23,53.2-23,53
		c0-0.2-0.2-0.4-0.4-0.4l0,0c-1.3-0.3-3.4-0.2-6.2,0.3l3.4-4.5h4.1c0.1,0,0.3,0,0.4-0.1l7.4-7.3l6.5-1.3l-1.3,6.5l-7.4,7.4l0,0v0.1
		v0.1c0,0.1-0.1,0.1-0.1,0.2v4.2l-4.3,3.1C-20.1,58.6-20,56.6-20.6,55.1z"/>
	<text transform="matrix(0.9932 0 0 1 -35.8582 112.1884)" class="st1 st2 st3">“</text>
	<rect x="-31.4" y="38.6" class="st4" width="24.7" height="5.9"/>
	<rect x="-31.4" y="57.5" class="st4" width="24.7" height="5.9"/>
	<rect x="-31.4" y="48" class="st4" width="24.7" height="5.9"/>
	<rect x="-29.2" y="41.3" class="st1" width="4" height="0.5"/>
	<rect x="-27.4" y="39.6" class="st1" width="0.5" height="4"/>
	<rect x="-29.2" y="50.7" class="st1" width="4" height="0.5"/>
	<rect x="-27.4" y="48.9" class="st1" width="0.5" height="4"/>
	<rect x="-29.2" y="60.2" class="st1" width="4" height="0.5"/>
	<rect x="-27.4" y="58.4" class="st1" width="0.5" height="4"/>
</g>
<g id="Layer_2">
	<rect x="-31.7" y="38.4" width="25.2" height="7"/>
	<rect x="-31.7" y="62.6" width="25.2" height="1"/>
	<rect x="-31.7" y="43.5" width="1" height="20.1"/>
	<rect x="-7.5" y="43.5" width="1" height="20.1"/>
	<rect x="-25" y="48.9" width="15" height="1"/>
	<rect x="-28" y="48.4" width="2" height="2"/>
	<rect x="-28" y="53" width="2" height="2"/>
	<rect x="-28" y="57.6" width="2" height="2"/>
	<rect x="-25" y="53.5" width="15" height="1"/>
	<rect x="-25" y="58.1" width="15" height="1"/>
</g>
</svg>
