<?xml version="1.0" encoding="utf-8"?>
<!-- Generator: Adobe Illustrator 19.0.0, SVG Export Plug-In . SVG Version: 6.00 Build 0)  -->
<svg version="1.1" xmlns="http://www.w3.org/2000/svg" xmlns:xlink="http://www.w3.org/1999/xlink" x="0px" y="0px"
	 viewBox="-34 36 30 30" style="enable-background:new -34 36 30 30;" xml:space="preserve">
<style type="text/css">
	.st0{display:none;fill:#262626;}
	.st1{display:none;}
	.st2{font-family:'ArialMT';}
	.st3{font-size:100.1578px;}
	.st4{display:none;fill:none;stroke:#000000;stroke-width:0.5;stroke-miterlimit:10;}
	.st5{display:inline;}
	.st6{display:inline;fill:none;stroke:#000000;stroke-miterlimit:10;}
	.st7{font-size:5px;}
	.st8{fill:none;stroke:#000000;stroke-miterlimit:10;}
	.st9{fill:#FFFFFF;}
</style>
<g id="Layer_1">
	<path class="st0" d="M-6.6,38.5c-0.1-0.1-0.3-0.1-0.5-0.1l-7.5,1.5c-0.2,0-0.3,0.1-0.3,0.3l-7.3,7.3h-4.3c-0.3,0-0.4,0.1-0.5,0.2
		l-4.5,6c-0.1,0.1-0.1,0.4,0,0.6c0.1,0.3,0.4,0.3,0.6,0.3c3-0.6,5-0.9,6.3-0.8l-6.8,8.9c-0.1,0.1-0.2,0.3-0.2,0.4
		c0,0.1,0.1,0.3,0.2,0.4c0.1,0.1,0.3,0.1,0.4,0.1h0.2l9.3-7.2c0.2,1.5-0.2,3.8-1.1,6.4l0,0c0,0.2,0,0.5,0.3,0.6
		c0.2,0.1,0.5,0.1,0.7,0l6-4.5c0.1-0.1,0.2-0.2,0.2-0.5v-4.2l7.4-7.4c0,0,0.1-0.1,0.1-0.3l1.4-7.6C-6.4,38.9-6.5,38.6-6.6,38.5z
		 M-20.6,55.1c0-0.2-0.3-0.4-0.4-0.4h-0.1c-0.1,0-0.2,0.1-0.3,0.1c-0.1,0-0.1,0.1-0.2,0.1l-6.1,4.7l4.6-6C-23,53.4-23,53.2-23,53
		c0-0.2-0.2-0.4-0.4-0.4l0,0c-1.3-0.3-3.4-0.2-6.2,0.3l3.4-4.5h4.1c0.1,0,0.3,0,0.4-0.1l7.4-7.3l6.5-1.3l-1.3,6.5l-7.4,7.4l0,0v0.1
		v0.1c0,0.1-0.1,0.1-0.1,0.2v4.2l-4.3,3.1C-20.1,58.6-20,56.6-20.6,55.1z"/>
	<text transform="matrix(0.9932 0 0 1 -35.8582 112.1884)" class="st1 st2 st3">“</text>
	<rect x="-31.4" y="38.6" class="st4" width="24.7" height="5.9"/>
	<rect x="-31.4" y="57.5" class="st4" width="24.7" height="5.9"/>
	<rect x="-31.4" y="48" class="st4" width="24.7" height="5.9"/>
	<rect x="-29.2" y="41.3" class="st1" width="4" height="0.5"/>
	<rect x="-27.4" y="39.6" class="st1" width="0.5" height="4"/>
	<rect x="-29.2" y="50.7" class="st1" width="4" height="0.5"/>
	<rect x="-27.4" y="48.9" class="st1" width="0.5" height="4"/>
	<rect x="-29.2" y="60.2" class="st1" width="4" height="0.5"/>
	<rect x="-27.4" y="58.4" class="st1" width="0.5" height="4"/>
</g>
<g id="Layer_2" class="st1">
	<rect x="-31.7" y="38.4" class="st5" width="25.2" height="7"/>
	<rect x="-31.7" y="62.6" class="st5" width="25.2" height="1"/>
	<rect x="-31.7" y="43.5" class="st5" width="1" height="20.1"/>
	<rect x="-7.5" y="43.5" class="st5" width="1" height="20.1"/>
	<rect x="-25" y="48.9" class="st5" width="15" height="1"/>
	<rect x="-28" y="48.4" class="st5" width="2" height="2"/>
	<rect x="-28" y="53" class="st5" width="2" height="2"/>
	<rect x="-28" y="57.6" class="st5" width="2" height="2"/>
	<rect x="-25" y="53.5" class="st5" width="15" height="1"/>
	<rect x="-25" y="58.1" class="st5" width="15" height="1"/>
</g>
<g id="Layer_3" class="st1">
	<rect x="-31.2" y="47.5" class="st6" width="24.2" height="7.9"/>
	<text transform="matrix(1 0 0 1 -28.4227 53.2682)" class="st5 st2 st7">Button</text>
	<g class="st5">
		<g id="chevron-right">
			<polygon points="-11.2,49.6 -11.7,50 -10.2,51.4 -11.7,52.9 -11.2,53.3 -9.4,51.4 			"/>
		</g>
	</g>
</g>
<g id="Layer_4" class="st1">
	<g id="Layer_3_copy" class="st5">
		<rect x="-31" y="47.7" class="st8" width="24.2" height="7.6"/>
		<g>
			<g id="chevron-right_1_">
				<polygon points="-11.1,49.6 -11.5,50 -10.1,51.4 -11.5,52.9 -11.1,53.3 -9.2,51.4 				"/>
			</g>
		</g>
		<g>
			<g id="chevron-right_2_">
				<polygon points="-28.7,51.4 -26.8,53.3 -26.4,52.9 -27.8,51.4 -26.4,50 -26.8,49.6 				"/>
			</g>
		</g>
		<circle class="st8" cx="-19" cy="51.5" r="5"/>
		<circle class="st9" cx="-18.9" cy="51.5" r="4.5"/>
	</g>
</g>
<g id="Layer_6">
	<rect x="-31.2" y="39.1" class="st8" width="24.2" height="16.8"/>
	<rect x="-28.7" y="44" width="14.1" height="0.8"/>
	<rect x="-28.7" y="46.8" width="11.7" height="0.8"/>
	<rect x="-28.7" y="49.6" width="9.6" height="0.8"/>
	<rect x="-13.8" y="43" width="5.1" height="0.8"/>
	<rect x="-11.6" y="40.8" width="0.8" height="5.1"/>
</g>
</svg>
