<?xml version="1.0" encoding="utf-8"?>
<!-- Generator: Adobe Illustrator 19.2.1, SVG Export Plug-In . SVG Version: 6.00 Build 0)  -->
<svg version="1.1" id="Layer_1" xmlns="http://www.w3.org/2000/svg" xmlns:xlink="http://www.w3.org/1999/xlink" x="0px" y="0px"
	 viewBox="0 0 30 30" style="enable-background:new 0 0 30 30;" xml:space="preserve">
<style type="text/css">
	.st0{display:none;fill:#262626;}
	.st1{enable-background:new    ;}
	.st2{display:none;fill:none;stroke:#000000;stroke-width:0.5;stroke-miterlimit:10;}
	.st3{display:none;}
</style>
<path class="st0" d="M-6.6,38.5c-0.1-0.1-0.3-0.1-0.5-0.1l-7.5,1.5c-0.2,0-0.3,0.1-0.3,0.3l-7.3,7.3h-4.3c-0.3,0-0.4,0.1-0.5,0.2
	l-4.5,6c-0.1,0.1-0.1,0.4,0,0.6c0.1,0.3,0.4,0.3,0.6,0.3c3-0.6,5-0.9,6.3-0.8l-6.8,8.9c-0.1,0.1-0.2,0.3-0.2,0.4
	c0,0.1,0.1,0.3,0.2,0.4c0.1,0.1,0.3,0.1,0.4,0.1h0.2l9.3-7.2c0.2,1.5-0.2,3.8-1.1,6.4l0,0c0,0.2,0,0.5,0.3,0.6
	c0.2,0.1,0.5,0.1,0.7,0l6-4.5c0.1-0.1,0.2-0.2,0.2-0.5v-4.2l7.4-7.4c0,0,0.1-0.1,0.1-0.3l1.4-7.6C-6.4,38.9-6.5,38.6-6.6,38.5z
	 M-20.6,55.1c0-0.2-0.3-0.4-0.4-0.4h-0.1c-0.1,0-0.2,0.1-0.3,0.1c-0.1,0-0.1,0.1-0.2,0.1l-6.1,4.7l4.6-6C-23,53.4-23,53.2-23,53
	s-0.2-0.4-0.4-0.4l0,0c-1.3-0.3-3.4-0.2-6.2,0.3l3.4-4.5h4.1c0.1,0,0.3,0,0.4-0.1l7.4-7.3l6.5-1.3l-1.3,6.5l-7.4,7.4l0,0v0.1v0.1
	c0,0.1-0.1,0.1-0.1,0.2v4.2l-4.3,3.1C-20.1,58.6-20,56.6-20.6,55.1z"/>
<g class="st1">
	<path d="M11.8,15.1v10.2H2.4v-8.1c0-4.4,0.5-7.5,1.6-9.5c1.4-2.6,3.5-4.6,6.5-5.9l2.1,3.4C10.8,6,9.5,7.1,8.6,8.6
		c-0.8,1.5-1.3,3.6-1.4,6.5H11.8z M26.8,15.1v10.2h-9.4v-8.1c0-4.4,0.5-7.5,1.6-9.5c1.4-2.6,3.5-4.6,6.5-5.9l2.1,3.4
		c-1.8,0.8-3.1,1.9-3.9,3.4c-0.8,1.5-1.3,3.6-1.4,6.5H26.8z"/>
</g>
<rect x="-31.4" y="38.6" class="st2" width="24.7" height="5.9"/>
<rect x="-31.4" y="57.5" class="st2" width="24.7" height="5.9"/>
<rect x="-31.4" y="48" class="st2" width="24.7" height="5.9"/>
<rect x="-29.2" y="41.3" class="st3" width="4" height="0.5"/>
<rect x="-27.4" y="39.6" class="st3" width="0.5" height="4"/>
<rect x="-29.2" y="50.7" class="st3" width="4" height="0.5"/>
<rect x="-27.4" y="48.9" class="st3" width="0.5" height="4"/>
<rect x="-29.2" y="60.2" class="st3" width="4" height="0.5"/>
<rect x="-27.4" y="58.4" class="st3" width="0.5" height="4"/>
</svg>
